<?xml version="1.0" standalone="no"?>
<!DOCTYPE svg PUBLIC "-//W3C//DTD SVG 20010904//EN"
 "http://www.w3.org/TR/2001/REC-SVG-20010904/DTD/svg10.dtd">
<svg version="1.0" xmlns="http://www.w3.org/2000/svg"
 width="2137.000000pt" height="1021.000000pt" viewBox="0 0 2137.000000 1021.000000"
 preserveAspectRatio="xMidYMid meet">

<g transform="translate(0.000000,1021.000000) scale(0.100000,-0.100000)"
fill="#000000" stroke="none">
<path d="M1781 6680 c-253 -21 -481 -80 -662 -171 -102 -51 -263 -166 -357
-255 -247 -232 -401 -516 -446 -824 -80 -547 41 -1003 349 -1315 199 -202 413
-321 846 -470 433 -149 975 -359 1179 -457 110 -53 134 -69 201 -137 87 -87
136 -177 163 -298 20 -91 21 -284 1 -378 -19 -90 -81 -216 -140 -283 -131
-148 -372 -255 -638 -283 -296 -31 -611 71 -907 294 -321 242 -581 546 -851
993 -39 66 -97 147 -130 180 l-58 61 -28 -17 c-27 -16 -28 -19 -25 -91 17
-414 73 -1583 77 -1587 12 -12 82 29 102 59 59 91 74 108 115 128 70 33 145
28 451 -34 767 -153 1105 -177 1484 -104 222 43 487 149 662 267 96 64 247
204 321 297 153 192 257 448 305 750 26 157 31 485 11 623 -49 331 -187 594
-416 790 -235 201 -458 300 -1385 612 -586 197 -696 246 -820 362 -58 54 -83
87 -114 148 -52 104 -65 170 -58 300 21 444 395 722 937 697 150 -7 261 -33
377 -87 243 -114 377 -252 782 -811 185 -255 282 -378 340 -433 l31 -30 0 722
c0 397 -2 722 -4 722 -2 0 -43 -23 -89 -50 -173 -102 -199 -103 -557 -15 -271
66 -436 97 -595 114 -144 15 -341 20 -454 11z"/>
<path d="M6430 6664 c-603 -55 -1019 -236 -1366 -596 -200 -207 -350 -457
-477 -793 -151 -399 -213 -771 -204 -1210 7 -331 44 -581 137 -917 120 -437
261 -693 518 -939 297 -286 668 -445 1235 -531 193 -30 657 -32 842 -5 821
122 1310 446 1624 1078 161 323 253 668 291 1084 17 190 14 381 -9 650 -47
544 -106 795 -261 1110 -108 222 -214 368 -382 532 -308 297 -653 448 -1190
519 -118 16 -644 28 -758 18z m540 -153 c181 -46 318 -139 409 -278 95 -144
128 -271 161 -623 81 -878 93 -1697 34 -2410 -30 -372 -81 -743 -120 -877 -94
-325 -321 -498 -684 -520 -169 -10 -351 29 -480 104 -85 50 -187 153 -228 231
-79 149 -159 428 -186 649 -42 341 -70 1557 -47 2063 23 499 64 920 106 1078
83 310 283 524 557 593 103 26 355 21 478 -10z"/>
<path d="M9761 6613 l-205 -3 -53 -41 c-29 -23 -53 -44 -53 -48 0 -3 9 -17 19
-30 17 -22 27 -24 162 -32 79 -4 163 -8 187 -8 l42 -1 0 -2273 0 -2274 -102
-12 c-144 -17 -233 -39 -253 -61 -10 -11 -18 -37 -19 -57 l-1 -38 1843 -3
c1013 -1 1842 0 1842 2 0 2 27 348 59 768 33 419 61 783 63 806 2 38 -1 46
-22 58 -14 7 -32 13 -40 13 -8 0 -42 -31 -75 -69 -59 -67 -95 -122 -357 -545
-171 -275 -273 -418 -380 -531 -174 -182 -372 -285 -633 -329 -105 -18 -400
-24 -482 -10 l-43 7 0 2279 0 2279 355 0 354 0 16 30 c8 16 15 31 15 33 0 3
-25 24 -55 47 l-54 42 -963 2 c-530 2 -1055 1 -1167 -1z"/>
<path d="M13759 6613 c-49 -3 -60 -8 -92 -41 l-37 -37 38 -30 37 -30 183 -3
182 -3 0 -2293 0 -2293 -27 -13 c-16 -7 -90 -16 -168 -20 -114 -5 -148 -10
-181 -28 -44 -23 -104 -77 -104 -94 0 -14 2049 -4 2260 11 980 69 1559 262
1980 658 336 316 526 749 605 1378 70 551 5 1187 -164 1622 -137 351 -361 622
-658 796 -207 122 -679 281 -1013 341 -229 42 -525 62 -1010 71 -384 6 -1759
12 -1831 8z m1992 -148 c550 -75 696 -123 855 -280 161 -159 231 -325 314
-745 71 -358 75 -414 75 -1050 -1 -1345 -99 -1876 -404 -2202 -212 -226 -510
-328 -962 -328 l-169 0 0 2320 c0 2203 1 2320 18 2320 9 0 132 -16 273 -35z"/>
<path d="M19084 6611 c-44 -4 -72 -14 -103 -35 -23 -16 -44 -33 -47 -37 -2 -4
24 -21 58 -38 58 -29 67 -31 180 -31 l118 0 0 -2295 0 -2295 -22 -4 c-13 -3
-57 -10 -98 -16 -157 -24 -205 -42 -219 -81 l-10 -29 1055 0 1054 0 0 40 c0
26 -4 40 -13 40 -7 0 -85 9 -173 20 -87 11 -165 20 -171 20 -10 0 -13 467 -13
2299 l0 2299 133 4 c127 3 134 4 180 33 26 17 47 33 47 37 0 4 -21 22 -47 40
l-48 33 -900 1 c-495 1 -927 -1 -961 -5z"/>
</g>
</svg>
